/* XPM */
static char *totem32[] = {
/* columns rows colors chars-per-pixel */
"32 32 257 2",
"   c #0036002D0033",
".  c #0CF205BE054F",
"X  c #0A69088E07CC",
"o  c #0B9D0AF70B7E",
"O  c #0ECF0F7C1132",
"+  c #0F9B10BD12FF",
"@  c #1054026800A8",
"#  c #11D608FB06F2",
"$  c #14860D040B1D",
"%  c #11A211D60E03",
"&  c #1843117C0E83",
"*  c #14FA13561411",
"=  c #192014C41318",
"-  c #1C561B2C16E8",
";  c #1E0F1A701A4F",
":  c #21711E3C1E37",
">  c #35A80ED1065D",
",  c #269A24682344",
"<  c #293724DE24F4",
"1  c #2C532A6B2C09",
"2  c #318E2ACC2599",
"3  c #34AC2C292B48",
"4  c #378234762B68",
"5  c #3AF2363B2EC1",
"6  c #3AC3396D2CF3",
"7  c #368E33DA35D6",
"8  c #3C1C30B9351E",
"9  c #3C56394D3A23",
"0  c #411939DC3767",
"q  c #5C8F296C24A3",
"w  c #64622F0E1EB1",
"e  c #6C3D2F022631",
"r  c #73AF2EA72E2E",
"t  c #79783FA73260",
"y  c #49A044363EE0",
"u  c #50B84BD33B0E",
"i  c #765643D233CC",
"p  c #424942484258",
"a  c #48BB47A94871",
"s  c #4B45494E4A58",
"d  c #4CF9443D41CB",
"f  c #55E24790468B",
"g  c #537C49E545CC",
"h  c #5AF05A0A415E",
"j  c #597F56BA5301",
"k  c #5F735A5558B1",
"l  c #5B3F5B40562C",
"z  c #661C5D7E5420",
"x  c #68805D5956EF",
"c  c #6C6B5B825C68",
"v  c #7A8A556E4A0F",
"b  c #6FBD69DA576D",
"n  c #6D206BD46025",
"m  c #63E164AA6A7D",
"M  c #67DD6BCB7E26",
"N  c #774E6BAB64BA",
"B  c #7DF96FEB7031",
"V  c #771973BF64F9",
"C  c #75AA77846F32",
"Z  c #7CAB74E2738A",
"A  c #7FAD7BA679CB",
"S  c #8ADF392725FE",
"D  c #86E53C0039C8",
"F  c #8CAF39983584",
"G  c #86E13D3F376D",
"H  c #8F2743CF393A",
"J  c #8435508E3E97",
"K  c #ABCF52003F09",
"L  c #82B260394D6E",
"P  c #95075EF74BF6",
"I  c #827680605D44",
"U  c #9F1E6D7D5C19",
"Y  c #842B6AD16418",
"T  c #841276DA6CEB",
"R  c #81427C5B79D8",
"E  c #8E9A785C70AB",
"W  c #89947C7970E2",
"Q  c #8B477CEA7D44",
"!  c #93E070E16588",
"~  c #989178B873FA",
"^  c #ACCE58C547CE",
"/  c #B19F56994769",
"(  c #B1A95C2643A8",
")  c #B1DB5C9D4944",
"_  c #A3D86F875AA0",
"`  c #BD4366315105",
"'  c #BDA66B6953CE",
"]  c #A17E6D8A614A",
"[  c #A59873C460E0",
"{  c #A53F7AB56C16",
"}  c #C266684D584A",
"|  c #C34F7E885D15",
" . c #CB4F78755490",
".. c #CB7175415E7A",
"X. c #CC82795C5564",
"o. c #D32C799C5D55",
"O. c #D9D57CE15ED3",
"+. c #C86179CA60A4",
"@. c #D31F7FD761E1",
"#. c #DF128021615F",
"$. c #8D1E89C062AE",
"%. c #8B158240644A",
"&. c #8F698D067CF6",
"*. c #934B8FAB670C",
"=. c #95B8874A7EB6",
"-. c #92ED9185685A",
";. c #95E3940B6B66",
":. c #99A992BF6D31",
">. c #9DA195D27124",
",. c #9E3394B67E10",
"<. c #9DF09A1E73F1",
"1. c #A59183A2729B",
"2. c #A6F890067FBC",
"3. c #A2639E2579B9",
"4. c #A9EB9B967C5F",
"5. c #A8F5A3E57F8F",
"6. c #CF7184796493",
"7. c #C2A18FFE792B",
"8. c #D3EA8190660D",
"9. c #DA358CC06DBD",
"0. c #D8CD8FA2753E",
"q. c #DBA18D4970B5",
"w. c #E3CA8E556F30",
"e. c #E1799BDD7EB5",
"r. c #EDB198647DF7",
"t. c #F1168F777D4F",
"y. c #8681894C815E",
"u. c #882A8EC08BB2",
"i. c #895E84268109",
"p. c #85A88ABB9E6A",
"a. c #8E8990509D2D",
"s. c #90DB8D69877D",
"d. c #869793A4A938",
"f. c #899A97BBAE09",
"g. c #949297FEA2AD",
"h. c #958B9B91A817",
"j. c #927D9B4DB63B",
"k. c #A0C88EC282A1",
"l. c #A73B98778929",
"z. c #AC0B9CC38D04",
"x. c #ADBC9EB89298",
"c. c #B7259CF39ADE",
"v. c #AF2EA82985BE",
"b. c #AE05A0CB9036",
"n. c #AE57A8AD8524",
"m. c #AA8BA8EA9914",
"M. c #B2CFA1348418",
"N. c #B7EEAF828E9C",
"B. c #BD24A6EC8E99",
"V. c #B89BA7AC9772",
"C. c #B8D3A85297EA",
"Z. c #BBAFAA7E99F5",
"A. c #B885B3F49694",
"S. c #ABB4A73DB09D",
"D. c #AA1AB0F1ABE9",
"F. c #B8A0AEEAA9BA",
"G. c #B92AA566AA14",
"H. c #BB66AA23A799",
"J. c #BD45B04FB37E",
"K. c #B841B582AD8F",
"L. c #B636B5D4B2DE",
"P. c #B666BD6FB52B",
"I. c #C03CB3EEB380",
"U. c #BE05BAB8B6A7",
"Y. c #C3879B929C15",
"T. c #DB769C8C82C2",
"R. c #C82BAE189976",
"E. c #C2FAB4279E51",
"W. c #C1ECAC69ABAA",
"Q. c #C526B317A246",
"!. c #C247BEA6A672",
"~. c #CBBBB672A67D",
"^. c #CEE3B14BAF8C",
"/. c #CBFCBC4FA570",
"(. c #CDFCBC71AAC5",
"). c #C647BE76BD02",
"_. c #D42AAD2DAA8C",
"`. c #D845B12BAEBA",
"'. c #D1CBBF6FADA0",
"]. c #DBECBD6FAEC5",
"[. c #D4C2B6A6B341",
"{. c #D6ECB9C6B381",
"}. c #DBAEBEA1B27E",
"|. c #E79C99E18123",
" X c #F692936C80D0",
".X c #ED32A38E89FC",
"XX c #E604AD28978E",
"oX c #FBE9A88088AD",
"OX c #FB8DAC608C1F",
"+X c #F422A9CD96BF",
"@X c #FD4BAE7A933D",
"#X c #F5FEBA729DD4",
"$X c #FFFFB0E6959C",
"%X c #FAB0B38A9C1A",
"&X c #F359B3AC95B4",
"*X c #E1BFB573B114",
"=X c #C5C1C35EADDD",
"-X c #C3BFC664B7A9",
";X c #C482C700BCDD",
":X c #C4F4CA67BF81",
">X c #C959C7C3B44D",
",X c #CCD8CB81BB8B",
"<X c #D51CC29DAD9F",
"1X c #D508C483B2FB",
"2X c #D154CB95B7E5",
"3X c #D1EFCE5AC025",
"4X c #DE2AC464B656",
"5X c #DDA1C56BBC38",
"6X c #DB74CBC2BC19",
"7X c #E3A1CAF7BCE6",
"8X c #E9E0D3F2BDCF",
"9X c #EA84DA0FBFA5",
"0X c #FFFFCCE3B30C",
"qX c #C5F4CCCFC48E",
"wX c #D168D247C764",
"eX c #D76BD5BBCBFC",
"rX c #DEA2D9FACD83",
"tX c #D410DC52D3CE",
"yX c #DD2ED6FAD225",
"uX c #DC1DDBC7D560",
"iX c #DE28E2AFD628",
"pX c #E625CFCFC2AC",
"aX c #E24ED0EDC83B",
"sX c #EB34D3F8C312",
"dX c #EB2FD635CAEA",
"fX c #EDC5DB18C622",
"gX c #EE62DB4CCBE2",
"hX c #E2ADD70BD3EB",
"jX c #E517DE00D607",
"kX c #E3F8DE55DA48",
"lX c #EC5CD737D4B7",
"zX c #EEDEDB12D1F9",
"xX c #F2C1E0D6CE4F",
"cX c #FFFFD813C1F9",
"vX c #FFFFDB99C4B3",
"bX c #F81ADE6EDCB4",
"nX c #EFCFE34FD0E9",
"mX c #E921E2D1DD3B",
"MX c #ED4CEB2FD6F2",
"NX c #E332E41BD585",
"BX c #F416E6A2D4B1",
"VX c #F4B0E6FEE033",
"CX c #F32EED3BD720",
"ZX c #F8E0E92BDCC7",
"AX c #F91EE24CDF53",
"SX c #F9CEEA08D5BA",
"DX c #FA84ED1DE06D",
"FX c #E813E914E198",
"GX c #EBBCE63DE27F",
"HX c #F02DEB99E3F2",
"JX c #F731EDA1E464",
"KX c #F639EE90EA3D",
"LX c #FACBE7A7E3D3",
"PX c #FB8DEBD3E3C5",
"IX c #FBF4F2C4ED74",
"UX c #F5B9F333EC10",
"YX c None",
/* pixels */
"YXYXYXYXYXYXYXYXYXYXYXYXYXYXYXYXYXYXYXYXYXYXYXYXYXYXYXYXYXYXYXYX",
"a     . q t P [ 1.1.{ ] Z m o       YXYXYXYXYXYXYXYXYXYXYXYXYXYX",
"a     . F / O.OX0XvX%X X`.h.*       YXYXYXYXYXYXYXYXYXYXYXYXYXYX",
"p     . r F K o.|.XX..} Y.f.O       YXYXYXYXYXYXYXYXYXYXYXYXYXYX",
"p       . # # $ # $ # # * *         YXYXYXYXYXYXYXYXYXYXYXYXYXYX",
"p       @ > w i L P _ ] ~ M o       YXYXYXYXYXYXYXYXYXYXYXYXYXYX",
"p       > S ( ' 8.r.@X$X`.j.+       YXYXYXYXYXYXYXYXYXYXYXYXYXYX",
"p     . e ) ' ` +.q.q.0.G.p.O       YXYXYXYXYXYXYXYXYXYXYXYXYXYX",
"p     . H ' 8.o. .6.9.e.S.a.o       YXYXYXYXYXYXYXYXYXYXYXYXYXYX",
"p     # H ` w.OX&X#X#X+XI.g.+             YXYXYXYXYXYXYXYXYXYXYX",
"p     . F ( 8.oX0XcX%Xt._.g.+ X ; 8 d y 4 = .   YXYXYXYXYXYXYXYX",
"p     . r F K o.|.XX..` Y.d.1 z k.c.5X1Xz.W z ,     YXYXYXYXYXYX",
"p       . . . $ $ $ @ # ; s F.gX8X[.pX1XZ.Z.'.,.6 o   YXYXYXYXYX",
"p       @ > w i L P _ L f W.LXPXfX}.5X1XZ.Q.<Xn.I 4 . YXYXYXYXYX",
"p       > S ) ' @.r.|.! G.bXbXLXSX7X}.{.Z.(.N.;.-.%.2   YXYXYXYX",
"p     . e ) ' ` ..9._ s.LXLXbXbXZXgX5X>XE.E.<.-.4.R.E * YXYXYXYX",
"p     . H ' 8.8.X.| L E.SXPXPXAXLXIXKXHXjXA.>.B.].sX6Xp   YXYXYX",
"<     . G ^ 6.e.T.7.Y ~.7X9XgXZXIXuXi.Z K.rX<XsXxXMXMXC o YXYXYX",
"        . # $ & = - c ^.{.{.4XdXGXA < : j uXJXiXuXtXtXu.+ YXYXYX",
"YXYXYXYXYXYXYXYXYX  N pXpX7X5XaXyXk < 1 a ;XiX-X-X-X-Xy.o YXYXYX",
"YXYXYXYXYXYXYXYXYX  x (./.~.Z.(.kXs.9 9 A FXkX,X>X=X!.V o YXYXYX",
"YXYXYXYXYXYXYXYXYX  0 l.V.Z.Q./.2XeXU.L.kXJXzXlXhXyXwXl o YXYXYX",
"YXYXYXYXYXYXYXYXYX  * T E.(.<XM.3.<XUXmXmXzXfXgXlXlXI.7   YXYXYX",
"YXYXYXYXYXYXYXYXYXYXX g /.E.5.-.2.7XNX-X,XlXgXfXfXdXB *   YXYXYX",
"YXYXYXYXYXYXYXYXYXYX  - b 3.*.:.R.gXiX;X>XyXlXgX9Xx.< . YXYXYXYX",
"YXYXYXYXYXYXYXYXYXYXYX  - h *.M.4XnXiX:X!.eXlXlXx.5 o   YXYXYXYX",
"YXYXYXYXYXYXYXYXYXYXYXYX  * u k.7XCXuXqX!.,X).Q 3 .   YXYXYXYXYX",
"YXYXYXYXYXYXYXYXYXYXYXYXYX  X 3 N m.P.D.&.n p * X   YXYXYXYXYXYX",
"YXYXYXYXYXYXYXYXYXYXYXYXYX      o ; - * = O X     YXYXYXYXYXYXYX",
"YXYXYXYXYXYXYXYXYXYXYXYXYXYXYXYX              YXYXYXYXYXYXYXYXYX",
"YXYXYXYXYXYXYXYXYXYXYXYXYXYXYXYXYXYXYXYXYXYXYXYXYXYXYXYXYXYXYXYX",
"YXYXYXYXYXYXYXYXYXYXYXYXYXYXYXYXYXYXYXYXYXYXYXYXYXYXYXYXYXYXYXYX"
};
